<mxfile host="www.draw.io" modified="2020-03-10T18:26:07.326Z" agent="Mozilla/5.0 (Macintosh; Intel Mac OS X 10_15) AppleWebKit/605.1.15 (KHTML, like Gecko) Version/13.0.5 Safari/605.1.15" etag="hHpJWSrH-qAmY-SBrxa7" version="12.8.2" type="github" pages="2">
  <diagram id="C1v8mTe7ugSQuTgbRVYM" name="Alexa">
    <mxGraphModel dx="928" dy="736" grid="1" gridSize="10" guides="1" tooltips="1" connect="1" arrows="1" fold="1" page="1" pageScale="1" pageWidth="827" pageHeight="1169" math="0" shadow="0">
      <root>
        <mxCell id="0" />
        <mxCell id="1" parent="0" />
        <mxCell id="dcTzPfN78nYmeOimg58B-1" value="Location of Systems" style="swimlane;html=1;childLayout=stackLayout;resizeParent=1;resizeParentMax=0;startSize=20;" parent="1" vertex="1">
          <mxGeometry x="150" y="40" width="914" height="1010" as="geometry" />
        </mxCell>
        <mxCell id="dcTzPfN78nYmeOimg58B-15" value="Participant&#39;s Alexa Device" style="swimlane;startSize=20;" parent="dcTzPfN78nYmeOimg58B-1" vertex="1">
          <mxGeometry y="20" width="200" height="990" as="geometry" />
        </mxCell>
        <mxCell id="dcTzPfN78nYmeOimg58B-16" value="Participant" style="rounded=0;whiteSpace=wrap;html=1;" parent="dcTzPfN78nYmeOimg58B-15" vertex="1">
          <mxGeometry x="30" y="100" width="120" height="60" as="geometry" />
        </mxCell>
        <mxCell id="dcTzPfN78nYmeOimg58B-2" value="University of Kent" style="swimlane;html=1;startSize=20;" parent="dcTzPfN78nYmeOimg58B-1" vertex="1">
          <mxGeometry x="200" y="20" width="294" height="990" as="geometry">
            <mxRectangle y="20" width="30" height="630" as="alternateBounds" />
          </mxGeometry>
        </mxCell>
        <mxCell id="dcTzPfN78nYmeOimg58B-6" value="Application API" style="shape=ellipse;html=1;dashed=0;whitespace=wrap;perimeter=ellipsePerimeter;" parent="dcTzPfN78nYmeOimg58B-2" vertex="1">
          <mxGeometry x="95" y="250" width="100" height="100" as="geometry" />
        </mxCell>
        <mxCell id="dcTzPfN78nYmeOimg58B-23" value="Mood Entries" style="html=1;dashed=0;whitespace=wrap;shape=partialRectangle;right=0;fillColor=none;" parent="dcTzPfN78nYmeOimg58B-2" vertex="1">
          <mxGeometry x="95" y="470" width="100" height="30" as="geometry" />
        </mxCell>
        <mxCell id="dcTzPfN78nYmeOimg58B-24" value="Encrypted entries" style="endArrow=classic;html=1;strokeColor=#6c8ebf;strokeWidth=2;fillColor=#dae8fc;entryX=0;entryY=0.5;entryDx=0;entryDy=0;exitX=0;exitY=0.5;exitDx=0;exitDy=0;edgeStyle=orthogonalEdgeStyle;" parent="dcTzPfN78nYmeOimg58B-2" source="dcTzPfN78nYmeOimg58B-6" target="dcTzPfN78nYmeOimg58B-23" edge="1">
          <mxGeometry x="-0.0182" width="50" height="50" relative="1" as="geometry">
            <mxPoint x="-155" y="340" as="sourcePoint" />
            <mxPoint x="145" y="420.71067811865476" as="targetPoint" />
            <Array as="points">
              <mxPoint x="50" y="300" />
              <mxPoint x="50" y="485" />
            </Array>
            <mxPoint as="offset" />
          </mxGeometry>
        </mxCell>
        <mxCell id="dcTzPfN78nYmeOimg58B-25" value="Encrypted entries" style="endArrow=classic;html=1;strokeColor=#6c8ebf;strokeWidth=2;fillColor=#dae8fc;entryX=0.5;entryY=1;entryDx=0;entryDy=0;" parent="dcTzPfN78nYmeOimg58B-2" source="dcTzPfN78nYmeOimg58B-23" target="dcTzPfN78nYmeOimg58B-6" edge="1">
          <mxGeometry width="50" height="50" relative="1" as="geometry">
            <mxPoint x="-155" y="389.28932188134524" as="sourcePoint" />
            <mxPoint x="145" y="399.28932188134524" as="targetPoint" />
          </mxGeometry>
        </mxCell>
        <mxCell id="dcTzPfN78nYmeOimg58B-29" value="Elasticsearch" style="shape=ellipse;html=1;dashed=0;whitespace=wrap;perimeter=ellipsePerimeter;" parent="dcTzPfN78nYmeOimg58B-2" vertex="1">
          <mxGeometry x="95" y="780" width="100" height="100" as="geometry" />
        </mxCell>
        <mxCell id="dcTzPfN78nYmeOimg58B-30" value="Participant Usage Logs" style="html=1;dashed=0;whitespace=wrap;shape=partialRectangle;right=0;fillColor=none;whiteSpace=wrap;" parent="dcTzPfN78nYmeOimg58B-2" vertex="1">
          <mxGeometry x="79" y="620" width="136" height="30" as="geometry" />
        </mxCell>
        <mxCell id="dcTzPfN78nYmeOimg58B-31" value="" style="endArrow=classic;html=1;strokeColor=#6c8ebf;strokeWidth=2;fillColor=#dae8fc;edgeStyle=orthogonalEdgeStyle;entryX=0.5;entryY=0;entryDx=0;entryDy=0;exitX=0.95;exitY=0.5;exitDx=0;exitDy=0;exitPerimeter=0;" parent="dcTzPfN78nYmeOimg58B-2" source="dcTzPfN78nYmeOimg58B-6" target="dcTzPfN78nYmeOimg58B-30" edge="1">
          <mxGeometry width="50" height="50" relative="1" as="geometry">
            <mxPoint x="183" y="300" as="sourcePoint" />
            <mxPoint x="135" y="620" as="targetPoint" />
            <Array as="points">
              <mxPoint x="238" y="300" />
              <mxPoint x="238" y="540" />
              <mxPoint x="147" y="540" />
            </Array>
          </mxGeometry>
        </mxCell>
        <mxCell id="dcTzPfN78nYmeOimg58B-33" value="Analytical data&lt;br&gt;(non-sensitive)" style="text;html=1;align=center;verticalAlign=middle;resizable=0;points=[];;labelBackgroundColor=#ffffff;" parent="dcTzPfN78nYmeOimg58B-31" vertex="1" connectable="0">
          <mxGeometry x="0.1418" y="2" relative="1" as="geometry">
            <mxPoint y="-150.70999999999998" as="offset" />
          </mxGeometry>
        </mxCell>
        <mxCell id="dcTzPfN78nYmeOimg58B-32" style="edgeStyle=orthogonalEdgeStyle;orthogonalLoop=1;jettySize=auto;html=1;strokeColor=#6c8ebf;strokeWidth=2;fillColor=#dae8fc;exitX=0.5;exitY=1;exitDx=0;exitDy=0;" parent="dcTzPfN78nYmeOimg58B-2" source="dcTzPfN78nYmeOimg58B-30" target="dcTzPfN78nYmeOimg58B-29" edge="1">
          <mxGeometry relative="1" as="geometry">
            <mxPoint x="150" y="740" as="targetPoint" />
            <Array as="points">
              <mxPoint x="147" y="730" />
              <mxPoint x="147" y="730" />
            </Array>
          </mxGeometry>
        </mxCell>
        <mxCell id="dcTzPfN78nYmeOimg58B-34" value="Logs" style="text;html=1;align=center;verticalAlign=middle;resizable=0;points=[];;labelBackgroundColor=#ffffff;" parent="dcTzPfN78nYmeOimg58B-32" vertex="1" connectable="0">
          <mxGeometry x="0.15" y="-2" relative="1" as="geometry">
            <mxPoint x="-15" y="9" as="offset" />
          </mxGeometry>
        </mxCell>
        <mxCell id="dcTzPfN78nYmeOimg58B-3" value="Amazon&#39;s Servers" style="swimlane;html=1;startSize=20;" parent="dcTzPfN78nYmeOimg58B-1" vertex="1">
          <mxGeometry x="494" y="20" width="210" height="990" as="geometry" />
        </mxCell>
        <mxCell id="dcTzPfN78nYmeOimg58B-17" value="Alexa Processing Server" style="shape=ellipse;html=1;dashed=0;whitespace=wrap;perimeter=ellipsePerimeter;whiteSpace=wrap;" parent="dcTzPfN78nYmeOimg58B-3" vertex="1">
          <mxGeometry x="68" y="250" width="100" height="100" as="geometry" />
        </mxCell>
        <mxCell id="dcTzPfN78nYmeOimg58B-4" value="AWS Instance" style="swimlane;html=1;startSize=20;" parent="dcTzPfN78nYmeOimg58B-1" vertex="1">
          <mxGeometry x="704" y="20" width="210" height="990" as="geometry" />
        </mxCell>
        <mxCell id="dcTzPfN78nYmeOimg58B-18" value="" style="endArrow=classic;html=1;entryX=0.5;entryY=0;entryDx=0;entryDy=0;edgeStyle=orthogonalEdgeStyle;fillColor=#dae8fc;strokeColor=#6c8ebf;strokeWidth=2;" parent="dcTzPfN78nYmeOimg58B-1" source="dcTzPfN78nYmeOimg58B-16" target="dcTzPfN78nYmeOimg58B-17" edge="1">
          <mxGeometry width="50" height="50" relative="1" as="geometry">
            <mxPoint x="-15" y="120" as="sourcePoint" />
            <mxPoint x="205.71067811865476" y="130" as="targetPoint" />
          </mxGeometry>
        </mxCell>
        <mxCell id="dcTzPfN78nYmeOimg58B-26" value="Voice request (audio file)" style="text;html=1;align=center;verticalAlign=middle;resizable=0;points=[];;labelBackgroundColor=#ffffff;" parent="dcTzPfN78nYmeOimg58B-18" vertex="1" connectable="0">
          <mxGeometry x="-0.5468" y="5" relative="1" as="geometry">
            <mxPoint x="72" y="-5" as="offset" />
          </mxGeometry>
        </mxCell>
        <mxCell id="dcTzPfN78nYmeOimg58B-19" value="" style="endArrow=classic;html=1;strokeWidth=2;entryX=0.5;entryY=0;entryDx=0;entryDy=0;strokeColor=#6c8ebf;fillColor=#dae8fc;edgeStyle=orthogonalEdgeStyle;" parent="dcTzPfN78nYmeOimg58B-1" source="dcTzPfN78nYmeOimg58B-17" target="dcTzPfN78nYmeOimg58B-6" edge="1">
          <mxGeometry width="50" height="50" relative="1" as="geometry">
            <mxPoint x="-206.71067811865476" y="310" as="sourcePoint" />
            <mxPoint x="383.28932188134524" y="320" as="targetPoint" />
            <Array as="points">
              <mxPoint x="479" y="320" />
              <mxPoint x="479" y="230" />
              <mxPoint x="345" y="230" />
            </Array>
          </mxGeometry>
        </mxCell>
        <mxCell id="dcTzPfN78nYmeOimg58B-21" value="Transcribed audio file" style="text;html=1;align=center;verticalAlign=middle;resizable=0;points=[];;labelBackgroundColor=#ffffff;fontStyle=0" parent="dcTzPfN78nYmeOimg58B-19" vertex="1" connectable="0">
          <mxGeometry x="-0.188" relative="1" as="geometry">
            <mxPoint x="-59" y="-46" as="offset" />
          </mxGeometry>
        </mxCell>
        <mxCell id="dcTzPfN78nYmeOimg58B-27" value="" style="endArrow=classic;html=1;strokeColor=#6c8ebf;strokeWidth=2;fillColor=#dae8fc;entryX=0.5;entryY=1;entryDx=0;entryDy=0;edgeStyle=orthogonalEdgeStyle;" parent="dcTzPfN78nYmeOimg58B-1" source="dcTzPfN78nYmeOimg58B-6" target="dcTzPfN78nYmeOimg58B-16" edge="1">
          <mxGeometry width="50" height="50" relative="1" as="geometry">
            <mxPoint x="-5" y="189.28932188134524" as="sourcePoint" />
            <mxPoint x="295" y="199.28932188134524" as="targetPoint" />
          </mxGeometry>
        </mxCell>
        <mxCell id="dcTzPfN78nYmeOimg58B-28" value="Decrypted entries&lt;br&gt;(Spoken by Alexa)" style="text;html=1;align=center;verticalAlign=middle;resizable=0;points=[];;labelBackgroundColor=#ffffff;" parent="dcTzPfN78nYmeOimg58B-27" vertex="1" connectable="0">
          <mxGeometry x="0.5333" relative="1" as="geometry">
            <mxPoint as="offset" />
          </mxGeometry>
        </mxCell>
        <mxCell id="dcTzPfN78nYmeOimg58B-22" value="All data is assumed to be sent as JSON unless specified" style="shape=note;whiteSpace=wrap;html=1;backgroundOutline=1;darkOpacity=0.05;dashed=0;" parent="1" vertex="1">
          <mxGeometry x="10" y="40" width="120" height="120" as="geometry" />
        </mxCell>
        <mxCell id="ZAbytnV5UNy0pL8NDC4B-2" style="edgeStyle=orthogonalEdgeStyle;orthogonalLoop=1;jettySize=auto;html=1;strokeColor=#d79b00;strokeWidth=1;fillColor=#ffe6cc;" parent="1" source="ZAbytnV5UNy0pL8NDC4B-1" target="dcTzPfN78nYmeOimg58B-6" edge="1">
          <mxGeometry relative="1" as="geometry">
            <Array as="points">
              <mxPoint x="310" y="520" />
              <mxPoint x="310" y="320" />
            </Array>
          </mxGeometry>
        </mxCell>
        <mxCell id="ZAbytnV5UNy0pL8NDC4B-1" value="Entries are encrypted / decrypted once they reach the application API." style="shape=note;whiteSpace=wrap;html=1;backgroundOutline=1;darkOpacity=0.05;dashed=0;" parent="1" vertex="1">
          <mxGeometry x="10" y="450" width="160" height="120" as="geometry" />
        </mxCell>
      </root>
    </mxGraphModel>
  </diagram>
  <diagram id="iH2dZtFCqkVUjak707w7" name="Application">
    <mxGraphModel dx="946" dy="725" grid="1" gridSize="10" guides="1" tooltips="1" connect="1" arrows="1" fold="1" page="1" pageScale="1" pageWidth="827" pageHeight="1169" math="0" shadow="0">
      <root>
        <mxCell id="tU0rBqO8w7DGsYOXJIm6-0" />
        <mxCell id="tU0rBqO8w7DGsYOXJIm6-1" parent="tU0rBqO8w7DGsYOXJIm6-0" />
        <mxCell id="tU0rBqO8w7DGsYOXJIm6-2" value="Location of Systems" style="swimlane;html=1;childLayout=stackLayout;resizeParent=1;resizeParentMax=0;startSize=20;" vertex="1" parent="tU0rBqO8w7DGsYOXJIm6-1">
          <mxGeometry x="150" y="40" width="670" height="650" as="geometry" />
        </mxCell>
        <mxCell id="tU0rBqO8w7DGsYOXJIm6-3" value="Participant&#39;s Device" style="swimlane;startSize=20;" vertex="1" parent="tU0rBqO8w7DGsYOXJIm6-2">
          <mxGeometry y="20" width="180" height="630" as="geometry" />
        </mxCell>
        <mxCell id="tU0rBqO8w7DGsYOXJIm6-4" value="Participant" style="rounded=0;whiteSpace=wrap;html=1;" vertex="1" parent="tU0rBqO8w7DGsYOXJIm6-3">
          <mxGeometry x="30" y="100" width="120" height="60" as="geometry" />
        </mxCell>
        <mxCell id="tU0rBqO8w7DGsYOXJIm6-5" value="University of Kent" style="swimlane;html=1;startSize=20;" vertex="1" parent="tU0rBqO8w7DGsYOXJIm6-2">
          <mxGeometry x="180" y="20" width="294" height="630" as="geometry">
            <mxRectangle y="20" width="30" height="630" as="alternateBounds" />
          </mxGeometry>
        </mxCell>
        <mxCell id="tU0rBqO8w7DGsYOXJIm6-6" value="Application API" style="shape=ellipse;html=1;dashed=0;whitespace=wrap;perimeter=ellipsePerimeter;" vertex="1" parent="tU0rBqO8w7DGsYOXJIm6-5">
          <mxGeometry x="95" y="250" width="100" height="100" as="geometry" />
        </mxCell>
        <mxCell id="tU0rBqO8w7DGsYOXJIm6-7" value="Mood Entries" style="html=1;dashed=0;whitespace=wrap;shape=partialRectangle;right=0;fillColor=none;" vertex="1" parent="tU0rBqO8w7DGsYOXJIm6-5">
          <mxGeometry x="95" y="470" width="100" height="30" as="geometry" />
        </mxCell>
        <mxCell id="tU0rBqO8w7DGsYOXJIm6-8" value="Encrypted entries" style="endArrow=classic;html=1;strokeColor=#6c8ebf;strokeWidth=2;fillColor=#dae8fc;entryX=0;entryY=0.5;entryDx=0;entryDy=0;exitX=0;exitY=0.5;exitDx=0;exitDy=0;edgeStyle=orthogonalEdgeStyle;" edge="1" parent="tU0rBqO8w7DGsYOXJIm6-5" source="tU0rBqO8w7DGsYOXJIm6-6" target="tU0rBqO8w7DGsYOXJIm6-7">
          <mxGeometry x="-0.0182" width="50" height="50" relative="1" as="geometry">
            <mxPoint x="-155" y="340" as="sourcePoint" />
            <mxPoint x="145" y="420.71067811865476" as="targetPoint" />
            <Array as="points">
              <mxPoint x="50" y="300" />
              <mxPoint x="50" y="485" />
            </Array>
            <mxPoint as="offset" />
          </mxGeometry>
        </mxCell>
        <mxCell id="tU0rBqO8w7DGsYOXJIm6-9" value="Encrypted entries" style="endArrow=classic;html=1;strokeColor=#6c8ebf;strokeWidth=2;fillColor=#dae8fc;entryX=0.5;entryY=1;entryDx=0;entryDy=0;" edge="1" parent="tU0rBqO8w7DGsYOXJIm6-5" source="tU0rBqO8w7DGsYOXJIm6-7" target="tU0rBqO8w7DGsYOXJIm6-6">
          <mxGeometry width="50" height="50" relative="1" as="geometry">
            <mxPoint x="-155" y="389.28932188134524" as="sourcePoint" />
            <mxPoint x="145" y="399.28932188134524" as="targetPoint" />
          </mxGeometry>
        </mxCell>
        <mxCell id="tU0rBqO8w7DGsYOXJIm6-17" value="" style="endArrow=classic;html=1;edgeStyle=orthogonalEdgeStyle;fillColor=#dae8fc;strokeColor=#6c8ebf;strokeWidth=2;" edge="1" parent="tU0rBqO8w7DGsYOXJIm6-2" source="tU0rBqO8w7DGsYOXJIm6-4" target="tU0rBqO8w7DGsYOXJIm6-6">
          <mxGeometry width="50" height="50" relative="1" as="geometry">
            <mxPoint x="-15" y="120" as="sourcePoint" />
            <mxPoint x="612" y="270" as="targetPoint" />
          </mxGeometry>
        </mxCell>
        <mxCell id="tU0rBqO8w7DGsYOXJIm6-18" value="Encrypted entries" style="text;html=1;align=center;verticalAlign=middle;resizable=0;points=[];;labelBackgroundColor=#ffffff;" vertex="1" connectable="0" parent="tU0rBqO8w7DGsYOXJIm6-17">
          <mxGeometry x="-0.5468" y="5" relative="1" as="geometry">
            <mxPoint x="72" y="-5" as="offset" />
          </mxGeometry>
        </mxCell>
        <mxCell id="tU0rBqO8w7DGsYOXJIm6-21" value="" style="endArrow=classic;html=1;strokeColor=#6c8ebf;strokeWidth=2;fillColor=#dae8fc;entryX=0.5;entryY=1;entryDx=0;entryDy=0;edgeStyle=orthogonalEdgeStyle;" edge="1" parent="tU0rBqO8w7DGsYOXJIm6-2" source="tU0rBqO8w7DGsYOXJIm6-6" target="tU0rBqO8w7DGsYOXJIm6-4">
          <mxGeometry width="50" height="50" relative="1" as="geometry">
            <mxPoint x="-5" y="189.28932188134524" as="sourcePoint" />
            <mxPoint x="295" y="199.28932188134524" as="targetPoint" />
          </mxGeometry>
        </mxCell>
        <mxCell id="tU0rBqO8w7DGsYOXJIm6-22" value="Encrypted entries" style="text;html=1;align=center;verticalAlign=middle;resizable=0;points=[];;labelBackgroundColor=#ffffff;" vertex="1" connectable="0" parent="tU0rBqO8w7DGsYOXJIm6-21">
          <mxGeometry x="0.5333" relative="1" as="geometry">
            <mxPoint as="offset" />
          </mxGeometry>
        </mxCell>
        <mxCell id="tU0rBqO8w7DGsYOXJIm6-23" value="" style="endArrow=classic;html=1;strokeColor=#6c8ebf;strokeWidth=2;fillColor=#dae8fc;entryX=0;entryY=0.5;entryDx=0;entryDy=0;edgeStyle=orthogonalEdgeStyle;" edge="1" parent="tU0rBqO8w7DGsYOXJIm6-2" source="tU0rBqO8w7DGsYOXJIm6-6" target="tU0rBqO8w7DGsYOXJIm6-16">
          <mxGeometry width="50" height="50" relative="1" as="geometry">
            <mxPoint x="45" y="310" as="sourcePoint" />
            <mxPoint x="465.71067811865476" y="320" as="targetPoint" />
            <Array as="points">
              <mxPoint x="430" y="320" />
              <mxPoint x="430" y="505" />
            </Array>
          </mxGeometry>
        </mxCell>
        <mxCell id="tU0rBqO8w7DGsYOXJIm6-24" value="Analytical data&lt;br&gt;(non-sensitive)" style="text;html=1;align=center;verticalAlign=middle;resizable=0;points=[];;labelBackgroundColor=#ffffff;" vertex="1" connectable="0" parent="tU0rBqO8w7DGsYOXJIm6-23">
          <mxGeometry x="0.1418" y="2" relative="1" as="geometry">
            <mxPoint x="-12" y="-68" as="offset" />
          </mxGeometry>
        </mxCell>
        <mxCell id="tU0rBqO8w7DGsYOXJIm6-12" value="AWS Instance" style="swimlane;html=1;startSize=20;" vertex="1" parent="tU0rBqO8w7DGsYOXJIm6-2">
          <mxGeometry x="474" y="20" width="196" height="630" as="geometry" />
        </mxCell>
        <mxCell id="tU0rBqO8w7DGsYOXJIm6-13" value="Elastisearch" style="shape=ellipse;html=1;dashed=0;whitespace=wrap;perimeter=ellipsePerimeter;" vertex="1" parent="tU0rBqO8w7DGsYOXJIm6-12">
          <mxGeometry x="48" y="250" width="100" height="100" as="geometry" />
        </mxCell>
        <mxCell id="tU0rBqO8w7DGsYOXJIm6-14" style="edgeStyle=orthogonalEdgeStyle;orthogonalLoop=1;jettySize=auto;html=1;entryX=0.5;entryY=1;entryDx=0;entryDy=0;strokeColor=#6c8ebf;strokeWidth=2;fillColor=#dae8fc;" edge="1" parent="tU0rBqO8w7DGsYOXJIm6-12" source="tU0rBqO8w7DGsYOXJIm6-16" target="tU0rBqO8w7DGsYOXJIm6-13">
          <mxGeometry relative="1" as="geometry" />
        </mxCell>
        <mxCell id="tU0rBqO8w7DGsYOXJIm6-15" value="Logs" style="text;html=1;align=center;verticalAlign=middle;resizable=0;points=[];;labelBackgroundColor=#ffffff;" vertex="1" connectable="0" parent="tU0rBqO8w7DGsYOXJIm6-14">
          <mxGeometry x="0.15" y="-2" relative="1" as="geometry">
            <mxPoint x="-2" y="9" as="offset" />
          </mxGeometry>
        </mxCell>
        <mxCell id="tU0rBqO8w7DGsYOXJIm6-16" value="Participant Usage Logs" style="html=1;dashed=0;whitespace=wrap;shape=partialRectangle;right=0;fillColor=none;whiteSpace=wrap;" vertex="1" parent="tU0rBqO8w7DGsYOXJIm6-12">
          <mxGeometry x="30" y="470" width="136" height="30" as="geometry" />
        </mxCell>
        <mxCell id="tU0rBqO8w7DGsYOXJIm6-25" value="All data is assumed to be sent as JSON unless specified" style="shape=note;whiteSpace=wrap;html=1;backgroundOutline=1;darkOpacity=0.05;dashed=0;" vertex="1" parent="tU0rBqO8w7DGsYOXJIm6-1">
          <mxGeometry x="10" y="40" width="120" height="120" as="geometry" />
        </mxCell>
        <mxCell id="wkdDEm7VJ6izItClSQKt-0" value="Entries are encrypted / decrypted on the device using a combination of a user&#39;s password and randomly generated secret key." style="shape=note;whiteSpace=wrap;html=1;backgroundOutline=1;darkOpacity=0.05;dashed=0;" vertex="1" parent="tU0rBqO8w7DGsYOXJIm6-1">
          <mxGeometry x="10" y="340" width="170" height="140" as="geometry" />
        </mxCell>
        <mxCell id="wkdDEm7VJ6izItClSQKt-1" style="edgeStyle=orthogonalEdgeStyle;orthogonalLoop=1;jettySize=auto;html=1;entryX=0;entryY=0.5;entryDx=0;entryDy=0;strokeColor=#d79b00;strokeWidth=1;fillColor=#ffe6cc;exitX=0;exitY=0;exitDx=70;exitDy=0;exitPerimeter=0;" edge="1" parent="tU0rBqO8w7DGsYOXJIm6-1" source="wkdDEm7VJ6izItClSQKt-0" target="tU0rBqO8w7DGsYOXJIm6-4">
          <mxGeometry relative="1" as="geometry">
            <Array as="points">
              <mxPoint x="80" y="190" />
            </Array>
          </mxGeometry>
        </mxCell>
      </root>
    </mxGraphModel>
  </diagram>
</mxfile>
